<svg width="9" height="10" viewBox="0 0 9 10" fill="none" xmlns="http://www.w3.org/2000/svg">
<g clip-path="url(#clip0)">
<path fill-rule="evenodd" clip-rule="evenodd" d="M4.72924 1.26852C4.86079 1.26852 4.98092 1.3432 5.03915 1.46115L6.02672 3.46187L8.23525 3.78468C8.36538 3.80371 8.47345 3.89495 8.51401 4.02006C8.55458 4.14517 8.52062 4.28246 8.4264 4.37423L6.82861 5.93047L7.20569 8.12905C7.22793 8.25872 7.17462 8.38976 7.06818 8.46708C6.96175 8.54441 6.82064 8.55459 6.7042 8.49336L4.72924 7.45475L2.75428 8.49336C2.63785 8.55459 2.49674 8.54441 2.3903 8.46708C2.28386 8.38976 2.23056 8.25872 2.2528 8.12905L2.62988 5.93047L1.03209 4.37423C0.937869 4.28246 0.903906 4.14517 0.944472 4.02006C0.985038 3.89495 1.0931 3.80371 1.22324 3.78468L3.43176 3.46187L4.41934 1.46115C4.47756 1.3432 4.5977 1.26852 4.72924 1.26852ZM4.72924 2.39493L3.97124 3.93057C3.92094 4.03247 3.82376 4.10313 3.71132 4.11956L2.01572 4.3674L3.24237 5.56216C3.32389 5.64156 3.3611 5.756 3.34186 5.86815L3.05244 7.5556L4.56838 6.75838C4.66908 6.70543 4.7894 6.70543 4.8901 6.75838L6.40604 7.5556L6.11662 5.86815C6.09739 5.756 6.1346 5.64156 6.21611 5.56216L7.44277 4.3674L5.74717 4.11956C5.63473 4.10313 5.53755 4.03247 5.48725 3.93057L4.72924 2.39493Z" fill="#F2994A"/>
</g>
<path d="M3.00118 6.10691L1.61877 4.0333L3.69239 3.6877L4.72919 1.95969L5.766 3.6877L7.83961 4.3789L6.4572 5.76131L6.8028 8.18052L4.72919 7.14371L2.65558 8.18052L3.00118 6.10691Z" fill="#F2994A"/>
<defs>
<clipPath id="clip0">
<rect width="8.29445" height="8.29445" fill="white" transform="translate(0.581909 0.922913)"/>
</clipPath>
</defs>
</svg>
